<svg xmlns="http://www.w3.org/2000/svg" viewBox="0 0 420 320" role="img" aria-label="录取通知书骰子">
  <defs>
    <linearGradient id="paper" x1="0" y1="0" x2="1" y2="1">
      <stop offset="0" stop-color="#fff8dd"/>
      <stop offset="1" stop-color="#f4d57b"/>
    </linearGradient>
    <linearGradient id="red" x1="0" y1="0" x2="1" y2="1">
      <stop offset="0" stop-color="#ff4a36"/>
      <stop offset="1" stop-color="#bd1c14"/>
    </linearGradient>
  </defs>
  <rect x="30" y="76" width="260" height="176" rx="22" fill="url(#paper)" stroke="#171717" stroke-width="10"/>
  <path d="M52 106h216" stroke="#d52e23" stroke-width="8" stroke-linecap="round"/>
  <path d="M72 148h112M72 180h154M72 212h78" stroke="#171717" stroke-width="12" stroke-linecap="round"/>
  <circle cx="248" cy="196" r="38" fill="none" stroke="#d52e23" stroke-width="10"/>
  <path d="M222 196h52M248 170v52" stroke="#d52e23" stroke-width="9" stroke-linecap="round"/>
  <rect x="232" y="42" width="136" height="136" rx="26" fill="#fffdf7" stroke="#171717" stroke-width="10" transform="rotate(12 300 110)"/>
  <circle cx="278" cy="86" r="11" fill="url(#red)"/>
  <circle cx="325" cy="98" r="11" fill="url(#red)"/>
  <circle cx="290" cy="131" r="11" fill="url(#red)"/>
  <circle cx="337" cy="142" r="11" fill="url(#red)"/>
  <path d="M116 254c26 24 102 24 128 0" fill="none" stroke="#171717" stroke-width="10" stroke-linecap="round"/>
  <path d="M70 52l22-28M110 44l7-31M342 219l26 20M316 242l8 34" stroke="#171717" stroke-width="10" stroke-linecap="round"/>
</svg>
